<?xml version="1.0" standalone="no"?>
<!DOCTYPE svg PUBLIC "-//W3C//DTD SVG 20010904//EN"
 "http://www.w3.org/TR/2001/REC-SVG-20010904/DTD/svg10.dtd">
<svg version="1.0" xmlns="http://www.w3.org/2000/svg"
 width="700.000000pt" height="700.000000pt" viewBox="0 0 700.000000 700.000000"
 preserveAspectRatio="xMidYMid meet">
<metadata>
Created by potrace 1.14, written by Peter Selinger 2001-2017
</metadata>
<g transform="translate(0.000000,700.000000) scale(0.100000,-0.100000)"
fill="#000000" stroke="none">
<path d="M3367 5003 c-1 -1 -40 -4 -87 -7 -95 -6 -206 -16 -230 -21 -8 -1 -40
-6 -70 -10 -110 -14 -293 -51 -415 -84 -38 -11 -97 -27 -130 -36 -71 -20 -278
-96 -353 -131 -29 -13 -55 -24 -58 -24 -12 0 -255 -126 -344 -178 -600 -350
-1094 -875 -1406 -1495 l-64 -128 0 -148 0 -148 98 -36 c53 -21 100 -37 103
-37 3 0 21 35 39 78 267 614 768 1141 1380 1449 575 290 1219 382 1860 267
581 -104 1120 -386 1545 -809 171 -170 256 -272 401 -485 77 -113 192 -332
264 -505 l34 -81 428 0 428 0 0 211 0 211 -70 142 c-75 151 -157 293 -246 423
-51 75 -132 187 -144 199 -3 3 -23 28 -45 55 -64 81 -102 122 -260 280 -162
162 -156 156 -307 275 -130 101 -111 87 -198 147 -472 321 -1025 530 -1585
598 -27 4 -61 8 -74 10 -53 9 -488 25 -494 18z"/>
</g>
</svg>
