<?xml version="1.0" encoding="UTF-8"?>
<svg id="Layer_1" xmlns="http://www.w3.org/2000/svg" width="800" height="400" version="1.1" viewBox="0 0 800 400">
  <!-- Generator: Adobe Illustrator 30.0.0, SVG Export Plug-In . SVG Version: 2.1.1 Build 123)  -->
  <defs>
    <style>
      .st0 {
        fill: #fff;
      }
    </style>
  </defs>
  <rect x="-1" y="-.5" width="802" height="401"/>
  <path id="_2N" class="st0" d="M527.9,237.15v-107.34h27.45v107.16c0,20.21-16.29,36.61-36.38,36.61-16.5,0-30.43-11.06-34.87-26.22l-23.19-86.35c-.91-3.98-4.41-6.97-8.63-6.97-4.92,0-8.87,4.01-8.87,8.92v107.22h-27.48v-108.52h0c.69-19.61,16.71-35.29,36.35-35.29,16.59,0,30.59,11.18,34.96,26.48l23.46,87.35h.06c1.27,3.41,4.46,5.82,8.29,5.82,4.88,0,8.83-3.98,8.83-8.9v.02h0ZM354.47,129.78c20.08,0,36.35,16.41,36.35,36.61,0,16.62-10.98,30.64-26.03,35.14l-85.74,23.35c-3.95.91-6.9,4.43-6.9,8.69v8.92h115.85v27.66h-143.33v-36.77c.06-16.64,11.17-30.67,26.3-35.08l86.74-23.58v-.06c3.37-1.27,5.79-4.49,5.79-8.36,0-4.92-3.95-8.9-8.83-8.9h-107.13v-27.66h106.98l-.03.03h0Z"/>
</svg>