<?xml version="1.0" encoding="UTF-8"?>
<svg id="Layer_1" xmlns="http://www.w3.org/2000/svg" width="800" height="400" version="1.1" viewBox="0 0 800 400">
  <!-- Generator: Adobe Illustrator 30.0.0, SVG Export Plug-In . SVG Version: 2.1.1 Build 123)  -->
  <defs>
    <style>
      .st0 {
        fill: #fff;
      }

      .st1 {
        fill: #b3b3b3;
      }

      .st2 {
        fill: #737373;
      }
    </style>
  </defs>
  <rect class="st0" x=".5" y=".5" width="800" height="400"/>
  <g id="comelit">
    <path class="st1" d="M246.74,156.44c-24.04,0-43.55,19.51-43.55,43.55s19.51,43.55,43.55,43.55,43.55-19.51,43.55-43.55-19.48-43.55-43.55-43.55ZM246.86,219.04c-10.51,0-19.03-8.52-19.03-19.03s8.52-19.03,19.03-19.03,19.03,8.52,19.03,19.03-8.52,19.03-19.03,19.03h0Z"/>
    <path class="st1" d="M197.63,210.31c-3.53,5.47-9.82,9-16.88,8.7-9.72-.42-17.7-8.43-18.15-18.12-.51-10.93,8.21-19.93,19.03-19.93,6.7,0,12.62,3.47,16.01,8.73.27.42.88.27,1-.21,1.84-8.49,5.86-16.13,11.45-22.35-8.34-7.25-19.45-11.39-31.5-10.57-21.53,1.42-38.99,18.85-40.47,40.38-1.75,25.43,18.39,46.63,43.43,46.63,10.93,0,20.9-4.02,28.54-10.66-5.59-6.22-9.6-13.89-11.45-22.35-.09-.48-.72-.6-1-.21h0v-.03h0Z"/>
    <path class="st1" d="M321.21,195.18l16.19,46.45h19.54l15.86-46.45h.69v46.45h24.64v-82.42h-36.21l-14.53,44.36h-.57l-14.53-44.36h-36.24v82.42h24.61l-.06-46.45h.61,0Z"/>
    <path class="st1" d="M403.84,241.63h70.88v-23.59h-43.79v-7.97h26.76v-19.9h-26.76v-8.37h43.79v-22.62h-70.88v82.45h0Z"/>
    <path class="st1" d="M610.17,241.63h27.54v-59.77h24.25v-22.65h-76.08v22.65h24.25v59.77h.04ZM480.34,241.63h66.29v-23.56h-38.75v-58.86h-27.54v82.45h0v-.03Z"/>
    <path class="st1" d="M580.09,159.21h-27.54v82.45h27.54v-82.45Z"/>
    <path class="st1" d="M654.6,232.96h1.45c.76,0,1.57.15,1.57,1.09,0,1.12-.91,1.18-1.87,1.18h-1.15v-2.27h0ZM653.51,239.16h1.12v-3.05h1.18l1.93,3.05h1.18l-2.05-3.14c1.06-.09,1.87-.63,1.87-1.93s-.82-2.05-2.48-2.05h-2.75v7.1h0v.03h0ZM650.85,235.59c0-2.9,2.17-5.16,5.04-5.16s4.98,2.23,4.98,5.16-2.17,5.22-4.98,5.22-5.04-2.23-5.04-5.22h0ZM649.74,235.59c0,3.5,2.81,6.13,6.16,6.13s6.1-2.63,6.1-6.13-2.78-6.04-6.1-6.04-6.16,2.63-6.16,6.04Z"/>
  </g>
  <path class="st2" d="M798,2v396H2V2h796M800,0H0v400h800V0h0Z"/>
</svg>