<?xml version="1.0" encoding="UTF-8"?>
<svg id="Layer_1" xmlns="http://www.w3.org/2000/svg" width="800" height="400" version="1.1" viewBox="0 0 800 400">
  <!-- Generator: Adobe Illustrator 30.0.0, SVG Export Plug-In . SVG Version: 2.1.1 Build 123)  -->
  <defs>
    <style>
      .st0 {
        fill: #fff;
      }

      .st1 {
        fill: #b3b3b3;
        fill-rule: evenodd;
      }

      .st2 {
        fill: #737373;
      }
    </style>
  </defs>
  <rect class="st0" x=".5" y=".5" width="800" height="400"/>
  <g id="Hikvision">
    <path class="st1" d="M445.9,198.04c-10.7-13.64-2.03-34.94,17.57-35.17h39.84l-3.58,9.54h-32.2c-5.35.06-8.32,6.48-5.35,10.38,5,7.48,13.41,12.73,18.73,20.41,11.54,15.15-.1,34.88-17.28,34.94h-43.84l3.58-9.54h34.62c5.32-.06,8.28-6.45,5.48-10.28-4.38-7.09-12.12-13.8-17.57-20.28"/>
    <polygon class="st1" points="210.29 238.15 187.15 238.15 215.55 162.88 216.22 162.88 238.05 162.88 238.73 162.88 210.29 238.15"/>
    <polygon class="st1" points="405.64 238.15 383.82 238.15 412.25 162.88 434.04 162.88 405.64 238.15"/>
    <polygon class="st1" points="511.79 238.15 489.97 238.15 518.4 162.88 540.23 162.88 511.79 238.15"/>
    <path class="st1" d="M544.77,185.7c7.61-15.67,23.63-23.98,38.42-23.53h13.54c11.41.52,18.34,9.7,18.92,17.31.13,1.81.1,3.58-.13,4.93-.19.84-.39,1.71-.58,2.55-2.39,9.67-6,19.5-10.7,28.37-7.61,15.67-23.63,23.98-38.42,23.5h-13.54c-11.41-.52-18.34-9.7-18.92-17.31-.13-1.81-.1-3.58.13-4.93.19-.84.39-1.71.58-2.55,2.39-9.67,6-19.5,10.7-28.37M586.06,169.97h0c-8.03.23-14.8,4.74-17.7,12.09l-14.41,38.33c-.39.9-.55,1.9-.55,2.93h0c0,4.09,3.26,7.48,7.38,7.8h2.13c8.03-.23,14.8-4.74,17.7-12.09l14.41-38.33c.39-.9.55-1.9.52-2.9h0c0-4.13-3.26-7.48-7.38-7.8h-2.13l.03-.03h0Z"/>
    <path class="st1" d="M139.15,191.85h27.59l10.93-28.98h23.15l-26.69,70.66s0,.03-.03.06c-1.06,2.64-3.71,4.51-6.77,4.51h-18.08l13.6-35.97h-27.59l-13.6,35.97h-23.15l28.43-75.27h23.15l-10.93,28.98v.03h0Z"/>
    <path class="st1" d="M266.96,191.18l37.75-28.3h17.31l-38.59,28.95,24.47,46.29h-19.66s.13,0,.16-.03c-3.06.19-5.8-1.48-7.06-4.03,0,0,0-.03-.03-.06h0l-15.38-29.04-5.77,4.32-10.9,28.85h-23.15l28.43-75.27h23.15l-10.67,28.3-.06.03h0Z"/>
    <path class="st1" d="M355.1,214.61l35.49-51.74h12.8l-49.51,72.08h0c-1.29,1.87-3.45,3.09-5.87,3.19h-.68.06-12.15l-6.06-75.27h21.79l4.16,51.74h-.03Z"/>
    <path class="st1" d="M638.64,187.21l-.1-.93-19.66,51.87h-11.25l28.56-75.27h14.25l20.53,50.87,19.28-50.87h11.25l-28.53,75.27h-10.28c-2.87-.16-5.29-1.9-6.35-4.35l-17.67-46.58h-.03Z"/>
  </g>
  <path class="st2" d="M798,2v396H2V2h796M800,0H0v400h800V0h0Z"/>
</svg>