<?xml version="1.0" encoding="UTF-8"?>
<svg id="Layer_1" xmlns="http://www.w3.org/2000/svg" width="800" height="400" version="1.1" viewBox="0 0 800 400">
  <!-- Generator: Adobe Illustrator 30.0.0, SVG Export Plug-In . SVG Version: 2.1.1 Build 123)  -->
  <defs>
    <style>
      .st0 {
        fill: #fff;
      }

      .st1 {
        fill: #b3b3b3;
      }

      .st2 {
        fill: #737373;
      }
    </style>
  </defs>
  <rect class="st0" x=".5" y=".5" width="800" height="400"/>
  <g id="Akuvox">
    <path class="st1" d="M155.47,242.23l38.14-76.42,4.11-10.14h33.96l.98,5.19,26.18,81.55h-27.88l-6.17-27.31h-30.68c-3.52,9.09-7.84,17.89-10.44,27.31h-28.18v-.15l-.03-.03h.01ZM201.63,195.42h18.43l-6.92-27.73-11.51,27.73Z"/>
    <path class="st1" d="M415.56,175.71l-1.46,16.07-.81,12.55-.66,16.31-.15,21.77h-24.12v-.33l.48-.09-.48-.09v-7.84c-.39-.09-.27.09-.39.21-3.85,4.35-7.51,7.48-13.3,9.03s-14.37,1.34-20.25-.36c-16.37-4.71-13-21.83-12.4-35.06.48-10.64,1.04-21.23,1.31-31.87h24.63l-.98,14.25c-.09,7.42-1.01,15.12-.48,22.51.45,6.08,1.61,12.2,9.06,12.17,12.55-.06,13.27-17.38,13.92-26.51.57-7.57.63-15.15.66-22.75h25.43l-.03.03h.02Z"/>
    <path class="st1" d="M558.66,235.46c-12.85,11.36-39.57,12.05-52.57.66-14.1-12.34-13.03-40.37.48-52.84,12.28-11.36,37.39-12.76,51.02-3.25,16.97,11.87,15.98,42.25,1.07,55.43h0ZM532.3,191.57c-9.48.78-10.97,11.27-10.91,18.96.06,7.63,2.15,15.8,11.33,15.74,11.96-.09,12.52-14.64,11.48-23.38-.86-7.16-4.03-11.96-11.93-11.3l.03-.03h0Z"/>
    <path class="st1" d="M602.69,175.71l6.44,18.1c1.34-3.31,2.98-6.5,4.32-9.78,1.1-2.74,2-5.58,3.1-8.32h27.97l-21.17,32.38c6.56,11.66,13.57,23.08,20.84,34.29h-30.09l-8.08-19.74-7.81,19.74h-28.71l10.35-15.83,12.28-20.31c-5.81-10.35-11.81-20.57-18.25-30.56h28.77l.03.03h.01Z"/>
    <path class="st1" d="M444.28,175.71l11.66,44.19c5.19-14.52,10.85-28.92,14.94-43.86l24.45-.27c-9.03,22-18.22,44.01-26.18,66.46l-29.19.18-20.45-66.7h24.78-.01Z"/>
    <path class="st1" d="M291.32,155.64c-.95,7.28-1.28,14.61-1.79,21.92l-2.59,64.82h-25.28c.42-4.92,1.04-9.84,1.46-14.76,1.37-16.49,1.79-33.07,2.44-49.56l.33-22.42h25.43Z"/>
    <path class="st1" d="M336.82,175.71l-21.68,29.94,20.16,36.44-.18.33h-27.73c-5.49-12.46-11.75-24.54-18.34-36.47,7.57-9.69,14.61-19.8,21.11-30.23h26.66,0Z"/>
  </g>
  <path class="st2" d="M798,2v396H2V2h796M800,0H0v400h800V0h0Z"/>
</svg>