<?xml version="1.0" encoding="UTF-8"?>
<svg id="Layer_1" xmlns="http://www.w3.org/2000/svg" width="800" height="400" version="1.1" viewBox="0 0 800 400">
  <!-- Generator: Adobe Illustrator 30.0.0, SVG Export Plug-In . SVG Version: 2.1.1 Build 123)  -->
  <defs>
    <style>
      .st0 {
        fill: #fff;
      }

      .st1 {
        fill: #006188;
      }
    </style>
  </defs>
  <rect class="st1" width="800" height="400"/>
  <g id="auta">
    <path class="st0" d="M273.74,204.17c-2.17-.27-4.93-.51-8.27-.78-3.35-.27-6.16-.4-8.49-.4-9,0-15.85,1.5-20.57,4.47-4.71,2.97-7.07,7.52-7.07,13.6,0,3.88.8,6.94,2.38,9.13s3.59,3.88,6,5.06c2.38,1.15,5.03,1.87,7.93,2.14s5.65.37,8.27.37c3.35,0,6.77-.16,10.34-.48s6.69-.8,9.45-1.45v-31.68s.03,0,.03,0ZM273.74,185.34c0-7.63-2.17-12.96-6.53-15.93-4.36-2.97-10.66-4.47-18.93-4.47-5.09,0-9.83.37-14.25,1.07-4.45.72-8.76,1.66-12.96,2.81l-4.12-15.34c4.93-1.42,10.36-2.54,16.31-3.29,5.94-.78,11.68-1.15,17.19-1.15,14.51,0,25.52,2.95,33.07,8.84,7.55,5.89,11.33,15.32,11.33,28.28v62.37c-5.09,1.04-11.25,2.12-18.5,3.21-7.26,1.1-14.65,1.66-22.2,1.66-7.1,0-13.52-.59-19.25-1.74-5.73-1.18-10.6-3.05-14.57-5.65-3.99-2.6-7.07-5.89-9.27-9.91-2.17-4.02-3.27-8.86-3.27-14.57s1.26-10.44,3.8-14.67c2.54-4.2,5.97-7.69,10.34-10.5,4.34-2.78,9.35-4.85,15.02-6.21,5.65-1.37,11.59-2.04,17.83-2.04,4.63,0,8.44.11,11.43.29,2.97.19,5.49.43,7.5.67v-3.7s.03,0,.03-.03Z"/>
    <path class="st0" d="M316.48,151.33h21.56v54.6c0,6.21.64,11.35,1.95,15.45,1.31,4.1,3.27,7.28,5.86,9.61,2.62,2.33,5.81,3.96,9.59,4.85,3.78.91,8.11,1.37,13.07,1.37,7.39,0,13.71-.7,18.93-2.14v-83.73h21.32v96.56c-5.09,1.29-11.14,2.52-18.18,3.7-7.04,1.15-14.33,1.74-21.88,1.74-7.1,0-13.82-.56-20.11-1.66-6.32-1.1-11.86-3.35-16.66-6.69s-8.57-8.09-11.3-14.17c-2.76-6.08-4.15-14.11-4.15-24.1v-55.38h0Z"/>
    <path class="st0" d="M440.81,166.68h-16.98l38.29-40.01v24.66h28.28v15.34h-28.28v45.47c0,5.44.27,9.77.78,13.01.51,3.24,1.37,5.73,2.62,7.47,1.23,1.74,2.89,2.92,5.01,3.51,2.09.59,4.74.88,7.95.88,2.46,0,4.79-.16,6.96-.48,2.17-.32,4.12-.67,5.89-1.07l2.17,15.16c-2.92.64-5.94,1.12-9.13,1.45s-6.61.48-10.23.48c-10.44,0-18.61-2.25-24.47-6.8-5.86-4.53-8.81-12.05-8.81-22.52v-56.53h-.05v-.03Z"/>
    <path class="st0" d="M571.08,204.17c-2.17-.27-4.93-.51-8.27-.78-3.35-.27-6.16-.4-8.49-.4-9,0-15.85,1.5-20.57,4.47-4.71,2.97-7.07,7.52-7.07,13.6,0,3.88.8,6.94,2.38,9.13s3.59,3.88,5.97,5.06c2.38,1.15,5.03,1.87,7.95,2.14,2.89.27,5.65.37,8.27.37,3.35,0,6.77-.16,10.34-.48s6.69-.8,9.45-1.45v-31.68h.03ZM571.08,185.34c0-7.63-2.17-12.96-6.53-15.93s-10.66-4.47-18.93-4.47c-5.09,0-9.83.37-14.25,1.07-4.42.72-8.76,1.66-12.96,2.81l-4.12-15.34c4.93-1.42,10.36-2.54,16.31-3.29,5.94-.78,11.68-1.15,17.19-1.15,14.51,0,25.52,2.95,33.07,8.84,7.55,5.89,11.33,15.32,11.33,28.28v62.37c-5.09,1.04-11.25,2.12-18.5,3.21-7.26,1.1-14.65,1.66-22.2,1.66-7.1,0-13.52-.59-19.25-1.74-5.73-1.18-10.58-3.05-14.57-5.65s-7.07-5.89-9.27-9.91c-2.17-4.02-3.27-8.86-3.27-14.57s1.26-10.44,3.8-14.67c2.52-4.2,5.97-7.69,10.34-10.5,4.34-2.78,9.35-4.85,15.02-6.21,5.65-1.37,11.59-2.04,17.83-2.04,4.63,0,8.43.11,11.43.29,2.97.19,5.49.43,7.5.67v-3.7h0v-.03h.03Z"/>
  </g>
</svg>