<?xml version="1.0" encoding="UTF-8"?>
<svg id="Layer_1" xmlns="http://www.w3.org/2000/svg" width="800" height="400" version="1.1" viewBox="0 0 800 400">
  <!-- Generator: Adobe Illustrator 30.0.0, SVG Export Plug-In . SVG Version: 2.1.1 Build 123)  -->
  <defs>
    <style>
      .st0 {
        fill: #fff;
      }

      .st1 {
        fill-rule: evenodd;
      }

      .st1, .st2 {
        fill: #b3b3b3;
      }

      .st3 {
        fill: #737373;
      }
    </style>
  </defs>
  <rect class="st0" x=".5" y=".5" width="800" height="400"/>
  <g id="TCS">
    <path class="st1" d="M503.25,121.27c0,6.04,4.96,10.95,11.03,10.95s11.03-4.92,11.03-10.95-4.96-10.95-11.03-10.95-11.03,4.92-11.03,10.95h0ZM505.37,121.27c0-5.24,3.8-9.31,8.95-9.31s8.87,4.08,8.87,9.31-3.8,9.31-8.87,9.31-8.95-4.08-8.95-9.31ZM510.09,127.67h2.12v-5.68h1.76l3.6,5.68h2.24l-3.68-5.68c2,0,3.32-1.48,3.32-3.56,0-2.44-1.48-3.6-4.44-3.6h-4.96v12.83h.04,0ZM512.17,116.48h2.52c1.36,0,2.64.44,2.64,1.88,0,1.68-1.04,2-2.64,2h-2.52v-3.88Z"/>
    <g>
      <path class="st1" d="M421.51,291c-23.94-16.99-45.53-50.21-45.81-88.98-.28-38.45,20.63-75.19,45.81-92.02h-29.26c-19.47,19.27-35.34,53.56-35.34,89.18,0,37.38,16.47,72.59,35.5,91.82h29.1Z"/>
      <path class="st1" d="M446.49,291h26.98c42.93-83.38-51.09-100.65,17.39-181h-26.06c-59.52,91.54,37.81,112.65-18.27,181h-.04Z"/>
      <polygon class="st2" points="275.68 110 338.12 110 338.12 129.55 316.9 129.55 316.9 290.84 297.19 290.84 297.19 129.55 275.68 129.55 275.68 110"/>
    </g>
  </g>
  <path class="st3" d="M798,2v396H2V2h796M800,0H0v400h800V0h0Z"/>
</svg>