<?xml version="1.0" encoding="UTF-8"?>
<svg id="Layer_1" xmlns="http://www.w3.org/2000/svg" width="800" height="400" version="1.1" viewBox="0 0 800 400">
  <!-- Generator: Adobe Illustrator 30.0.0, SVG Export Plug-In . SVG Version: 2.1.1 Build 123)  -->
  <defs>
    <style>
      .st0 {
        fill: #fff;
      }

      .st1 {
        fill: #1d5b99;
        stroke: #fff;
        stroke-miterlimit: 10;
        stroke-width: 2.72px;
      }

      .st2 {
        fill: #cbcbcb;
      }
    </style>
  </defs>
  <path class="st2" d="M799.97,0H0v400h800V0h-.03Z"/>
  <g id="Fermax">
    <path class="st1" d="M726.99,137.13H72.98v125.74h654.04v-125.74h-.03,0Z"/>
    <path class="st0" d="M181.6,179.41h-68.4v11.58h59.81v17.26h-59.81v29.62h-16.39v-75.6h84.79v17.15h0ZM282.78,179.41h-64.79v11.58h55.55v17.26h-55.55v10.71h64.79v18.89h-81.04v-75.6h81.04v17.18-.02ZM347.86,162.27v17.04h-27.26v12.23h27.26v17.47h-27.26v28.83h-17.64v-75.6h44.89v.03h.01ZM423.93,237.87h-18.24v-75.6h18.24l27.47,46.63,27.47-46.63h17.94v75.6h-17.94v-46.88l-27.66,46.88-27.26-47.75v47.75h-.03.01ZM347.86,209.01v-17.47h22.18l.52-.11.52-.22.52-.22.52-.22.41-.33.43-.33.41-.43.3-.33.41-.43.19-.43.11-.33.11-.22.19-.54.22-.54v-.54l.11-.65v-.54l-.11-.65-.11-.54-.22-.54-.22-.65-.3-.43-.3-.43-.3-.54-.41-.33-.43-.33-.52-.33-.41-.33-.52-.33-.63-.11-.19-.11-.33-.11h-22.18v-17.04h23.53l1.14.11,1.14.11,1.03.11,1.03.33,1.14.22.92.33,1.03.33.41.22.52.22.92.43.92.54.84.54.41.22.41.33.84.65.73.76.73.65.71.76.63.76.63.87.63.87.52.87.52.87.41.98.52.98.3.98.43,1.09.3.98.19,1.09.22,1.09.19,1.22.11,1.09.11,1.2v2.31l-.11,1.2-.11,1.2-.19,1.09-.22,1.09-.19,1.2-.3.98-.43,1.09-.3.98-.52,1.09-.41.98-.52.87-.63.98-.63.87-.63.87-.63.87-.84.76-.73.87-.73.65-.84.65-.84.65-.92.54-.92.54-.92.54-.95.43-1.03.43-1.03.33-1.03.22-1.14.22-1.06.19h-1.14l-1.14.11,19.05,28.83h-18.56l-17.83-28.83h-5.79l.14.14h0v-.06ZM553.29,162.27v11.47l-15.44,35.08h15.44v15.08h-22.18l-6.11,13.97h-19.7l33.29-75.6h14.73-.03,0ZM655.19,188.27l25.08-26.01h22.8l-36.5,37.8,36.5,37.8h-22.8l-25.08-26.01-25.19,26.01h-22.83l36.58-37.8-36.58-37.8h22.91l25.08,26.01h.03ZM553.29,223.87v-15.08h15.44l-15.44-35.08v-11.47h14.7l33.29,75.6h-19.81l-6.11-13.97h-22.09.03-.01Z"/>
  </g>
</svg>