<?xml version="1.0" encoding="UTF-8"?>
<svg id="Layer_1" xmlns="http://www.w3.org/2000/svg" width="800" height="400" version="1.1" viewBox="0 0 800 400">
  <!-- Generator: Adobe Illustrator 30.0.0, SVG Export Plug-In . SVG Version: 2.1.1 Build 123)  -->
  <defs>
    <style>
      .st0 {
        fill: #fff;
      }
    </style>
  </defs>
  <rect x=".5" y=".25" width="799" height="399.5"/>
  <g id="Mura">
    <g id="g34-4-3">
      <path id="path36-2-6" class="st0" d="M249.09,154.58v90.04h-21.77v-34.34c0-16.35,1.2-31.76,1.02-31.76h-.19c-.19,0-8.77,9.52-12.39,13.63l-27.18,30.22h-11.58l-27.15-30.22c-3.59-4.12-11.99-13.63-12.18-13.63h-.19c-.19,0,.8,15.44.8,31.76v34.34h-21.77v-90.04h20.76l31.76,34.48c11.58,12.34,13.58,15.44,13.76,15.44h.19c.19,0,2.2-3.1,13.58-15.44l31.76-34.48h20.79Z"/>
    </g>
    <g id="g38-8-9">
      <path id="path40-0-8" class="st0" d="M404.49,154.58v51.84c0,25.97-22.16,39.98-58.93,39.98s-58.72-14.01-58.72-39.98v-51.84h22.16v51.69c0,18.13,12.39,26.87,36.56,26.87s36.95-8.75,36.95-26.87v-51.69h22,0Z"/>
    </g>
    <g id="g42-7-5">
      <path id="path44-3-8" class="st0" d="M490.56,199.87c18.98,0,28.17-7.19,28.17-16.07s-9.98-15.83-28.17-15.83h-26.17v31.89h26.17ZM521.93,244.6l-29.56-32.28c-1.4.13-2.8.13-4.39.13h-23.56v32.14h-22.16v-90.01h45.75c33.54,0,53.73,11.44,53.73,29.18,0,12.61-10.21,21.72-27.97,25.97l33.16,34.86h-24.99,0Z"/>
    </g>
    <g id="g46-85-7">
      <path id="path48-5-6" class="st0" d="M659.72,211.69l-18-28.17c-2.99-4.89-6.39-11.71-6.59-11.71h-.19c-.19,0-3.59,6.83-6.59,11.71l-17.96,28.17h49.34-.03,0ZM667.72,224.17h-65.32l-12.98,20.46h-23.78l59.13-90.04h20.57l59.13,90.04h-23.78l-12.98-20.46h0Z"/>
    </g>
  </g>
</svg>