<?xml version="1.0" encoding="UTF-8"?>
<svg id="Layer_1" xmlns="http://www.w3.org/2000/svg" width="800" height="400" version="1.1" viewBox="0 0 800 400">
  <!-- Generator: Adobe Illustrator 30.0.0, SVG Export Plug-In . SVG Version: 2.1.1 Build 123)  -->
  <defs>
    <style>
      .st0 {
        fill: #102737;
      }

      .st1 {
        fill: #66819d;
      }

      .st2 {
        fill: #fff;
      }

      .st3 {
        fill: #737373;
      }
    </style>
  </defs>
  <rect class="st2" width="800" height="400"/>
  <g id="DoorBird">
    <g>
      <polygon class="st0" points="180.76 209.09 180.76 142.89 115.39 250.65 180.76 209.09"/>
      <polygon class="st1" points="116.35 257.11 180.76 209.09 59.48 143.06 116.35 257.11"/>
    </g>
    <g>
      <path class="st0" d="M264.78,222.49c-5.77,5.23-14.15,7.87-24.94,7.87h-17.17v-62.29h15.52c23.43,0,35.32,10.5,35.32,31.2,0,10.15-2.92,17.97-8.74,23.2M238.69,155.47h-29.62v87.77h28.61c16.72,0,29.32-4,37.4-11.92s12.17-18.82,12.17-32.4-4.22-24.35-12.53-31.96c-8.34-7.63-20.44-11.49-36.01-11.49"/>
      <path class="st0" d="M347.34,226.4c-4.1,4.24-9.37,6.38-15.66,6.38s-11.54-2.14-15.66-6.38c-4.1-4.22-6.17-9.75-6.17-16.41s2.07-12.2,6.17-16.44,9.37-6.36,15.66-6.36,11.56,2.14,15.66,6.36c4.1,4.24,6.17,9.75,6.17,16.44s-2.07,12.2-6.17,16.41M331.68,175.72c-9.87,0-18.2,3.34-24.77,9.94-6.57,6.59-9.91,14.77-9.91,24.33s3.34,17.73,9.91,24.33c6.57,6.59,14.91,9.94,24.77,9.94s18.2-3.34,24.77-9.94c6.57-6.59,9.91-14.79,9.91-24.33s-3.32-17.73-9.91-24.33c-6.57-6.59-14.91-9.94-24.77-9.94"/>
      <path class="st0" d="M426.4,226.4c-4.1,4.24-9.37,6.38-15.66,6.38s-11.56-2.14-15.66-6.38c-4.1-4.22-6.17-9.75-6.17-16.41s2.07-12.2,6.17-16.44,9.37-6.36,15.66-6.36,11.54,2.14,15.66,6.36c4.1,4.24,6.17,9.75,6.17,16.44s-2.07,12.2-6.17,16.41M410.74,175.72c-9.87,0-18.2,3.34-24.77,9.94-6.57,6.59-9.91,14.77-9.91,24.33s3.34,17.73,9.91,24.33c6.57,6.59,14.91,9.94,24.77,9.94s18.2-3.34,24.77-9.94c6.57-6.59,9.91-14.77,9.91-24.33s-3.34-17.73-9.91-24.33c-6.57-6.59-14.91-9.94-24.77-9.94"/>
      <path class="st0" d="M541.62,192.39h-19.55v-24.33h19.66c5.58,0,9.77.99,12.48,2.92,2.78,1.98,4.17,5.25,4.17,9.68,0,7.77-5.65,11.7-16.77,11.7M563.55,217.5c0,5.06-1.55,8.55-4.66,10.41-2.99,1.79-7.32,2.68-12.88,2.68h-23.97v-25.6h22.07c12.88,0,19.43,4.19,19.43,12.48M557.38,157.61c-4.26-1.41-9.37-2.14-15.26-2.14h-33.68v87.77h37.96c11.77,0,20.18-2.71,24.99-8.08,4.07-4.62,6.15-10.01,6.15-16.01,0-5.42-1.58-10.03-4.71-13.66-3.13-3.65-7.39-6.1-12.69-7.25l-1.88-.4,1.74-.78c1.51-.66,2.54-1.15,3.13-1.46.38-.21,1.25-.73,3.18-2.17,4.17-3.25,6.31-8.29,6.31-15.02,0-5.58-1.98-10.67-5.89-15.12-2.03-2.38-5.18-4.29-9.37-5.68"/>
    </g>
    <rect class="st0" x="595.32" y="176.69" width="12.95" height="66.6"/>
    <g>
      <path class="st0" d="M606.88,152.57c-1.51-1.53-3.27-2.28-5.37-2.28s-3.84.75-5.37,2.28-2.26,3.32-2.26,5.42.73,3.89,2.26,5.42c1.51,1.53,3.27,2.28,5.37,2.28s3.86-.75,5.37-2.28,2.26-3.3,2.26-5.42-.73-3.89-2.26-5.42"/>
      <path class="st0" d="M662.85,176.95c-9.42.12-16.79,3.86-21.55,10.88v-10.53h-11.94v66.08h11.94v-34.99c1.08-12.58,9.23-19.95,21.55-19.73h1.3v-11.75h-1.27l-.02.05h0Z"/>
      <path class="st0" d="M727.66,210.15c0,6.66-2.07,12.2-6.17,16.41-4.1,4.24-9.37,6.38-15.66,6.38s-11.56-2.14-15.66-6.38c-4.1-4.22-6.17-9.75-6.17-16.41s2.07-12.2,6.17-16.44,9.37-6.36,15.66-6.36,11.54,2.14,15.66,6.36c4.1,4.24,6.17,9.75,6.17,16.44M740.52,210.15c0-.61-.14-1.18-.16-1.77v-58.38h-12.86v33.25c-4.76-3.77-10.24-6.1-16.48-6.9-1.84-.4-3.77-.64-5.77-.64-4.57,0-8.83.89-12.76,2.59-4.24,1.65-8.05,4.14-11.4,7.51-6.57,6.59-9.91,14.79-9.91,24.33s3.34,17.73,9.91,24.33c4.19,4.22,9.18,6.95,14.74,8.48.85.26,1.67.57,2.54.73,2.38.47,4.87.73,7.49.73,8.41,0,15.64-2.59,21.67-7.37v6.17h12.86v-31.3c.02-.61.16-1.15.16-1.77"/>
      <path class="st0" d="M490.33,176.95c-9.42.12-16.79,3.86-21.55,10.88v-10.53h-11.94v66.08h11.94v-34.99c1.06-12.39,8.9-19.73,20.98-19.73h1.84v-11.75h-1.27v.05h0Z"/>
    </g>
  </g>
  <path class="st3" d="M798,2v396H2V2h796M800,0H0v400h800V0h0Z"/>
</svg>