<?xml version="1.0" encoding="UTF-8"?>
<svg id="Layer_1" xmlns="http://www.w3.org/2000/svg" width="800" height="400" version="1.1" viewBox="0 0 800 400">
  <!-- Generator: Adobe Illustrator 30.0.0, SVG Export Plug-In . SVG Version: 2.1.1 Build 123)  -->
  <defs>
    <style>
      .st0 {
        fill: #fff;
      }

      .st1 {
        fill: #b3b3b3;
      }

      .st2 {
        fill: #737373;
      }
    </style>
  </defs>
  <rect class="st0" x=".5" y=".5" width="800" height="400"/>
  <g id="alhua">
    <polygon class="st1" points="350.02 207.41 370.6 143.31 346.49 143.31 334.34 181.29 334.18 179.86 334.11 178.43 333.89 177.09 333.73 175.69 333.45 174.33 333.13 172.99 332.78 171.65 332.4 170.32 331.95 168.95 331.51 167.71 330.9 166.37 330.39 165.1 329.72 163.89 329.06 162.62 328.29 161.35 327.56 160.17 325.97 158.01 324.28 155.97 322.47 154.12 320.47 152.31 318.46 150.66 316.3 149.19 313.98 147.86 311.59 146.58 309.11 145.47 306.6 144.49 303.99 143.66 301.31 142.93 298.45 142.42 295.62 141.88 292.72 141.59 289.8 141.43 286.74 141.34 283.69 141.43 280.6 141.65 277.49 142 274.37 142.48 271.22 143.09 268.04 143.82 264.89 144.71 261.67 145.76 258.46 146.87 255.34 148.21 252.13 149.64 248.98 151.2 245.86 152.92 242.81 154.73 239.75 156.73 236.76 158.8 233.9 160.96 231.16 163.22 228.56 165.55 226.01 167.9 223.63 170.38 221.3 172.93 219.23 175.54 217.2 178.14 215.26 180.75 213.54 183.52 211.92 186.22 210.42 188.96 209.09 191.79 207.81 194.56 206.76 197.39 205.81 200.16 204.98 202.99 204.38 205.82 203.87 208.59 203.49 211.42 203.33 214.19 203.26 216.86 203.33 219.57 203.65 222.24 204.09 224.85 204.6 227.46 205.33 230 206.32 232.39 207.37 234.87 208.64 237.19 210.04 239.42 211.54 241.52 213.16 243.43 214.91 245.3 216.75 246.99 218.69 248.58 220.73 250.07 222.89 251.44 225.12 252.68 227.44 253.8 229.83 254.78 232.34 255.67 234.89 256.41 237.5 257.01 240.2 257.55 242.87 258 245.7 258.22 248.54 258.38 251.4 258.38 254.29 258.28 257.28 258.06 260.27 257.77 263.23 257.23 266.22 256.72 269.31 255.96 272.36 255.13 275.32 254.18 278.38 253.13 281.46 251.86 284.42 250.62 287.41 249.12 290.4 247.56 293.39 245.81 293.39 241.04 290.85 242.41 288.37 243.58 285.85 244.7 283.31 245.75 280.7 246.64 278.19 247.47 275.64 248.2 273.1 248.8 270.55 249.34 268.04 249.72 265.56 250.07 263.01 250.23 260.56 250.39 258.17 250.39 255.69 250.3 253.4 250.07 251.02 249.79 248.76 249.41 246.53 248.96 244.37 248.36 242.2 247.63 240.1 246.86 238.1 245.97 236.16 244.98 234.28 243.9 232.5 242.76 230.72 241.52 229.07 240.09 227.51 238.59 226.07 237.03 224.67 235.38 223.4 233.6 222.13 231.62 221.08 229.59 220.13 227.46 219.3 225.29 218.63 223.06 218.12 220.81 217.74 218.52 217.52 216.19 217.36 213.81 217.36 211.42 217.52 209.04 217.8 206.55 218.25 204.2 218.79 201.72 219.46 199.24 220.22 196.79 221.18 194.4 222.13 191.95 223.34 189.53 224.61 187.18 225.95 184.79 227.51 182.44 229.07 180.15 230.78 177.92 232.66 175.69 234.6 173.5 236.67 171.34 238.83 169.27 241.09 167.26 243.48 165.32 245.93 163.45 248.47 161.66 251.08 159.95 253.75 158.39 256.46 156.86 259.22 155.52 261.9 154.35 264.63 153.2 267.43 152.25 270.17 151.36 272.94 150.59 275.7 149.93 278.38 149.48 281.14 149.07 283.85 148.75 286.52 148.59 289.13 148.59 291.74 148.65 294.28 148.81 296.8 149.13 299.28 149.58 301.66 150.08 304.05 150.78 306.28 151.52 308.54 152.41 310.7 153.36 312.8 154.51 314.74 155.68 316.58 157.02 318.46 158.51 320.08 160.07 321.74 161.73 323.23 163.51 324.57 165.45 325.68 167.17 326.67 168.89 327.5 170.6 328.23 172.48 328.83 174.26 329.34 176.14 329.72 178.08 330.07 180.02 330.3 182.03 330.39 184.03 330.46 186.13 330.39 188.23 330.23 190.39 330.01 192.52 329.72 194.72 329.34 196.95 328.83 199.33 328.13 201.72 327.4 204.04 326.57 206.27 325.68 208.43 324.63 210.59 323.52 212.69 322.31 214.79 321.01 216.8 319.58 218.83 318.08 220.74 316.43 222.68 314.64 224.56 312.8 226.44 310.83 228.22 308.76 230 309.71 230.22 310.7 230.38 311.69 230.51 312.7 230.67 313.82 230.83 314.96 230.99 316.08 230.99 317.19 230.99 318.81 230.99 320.37 230.89 322.02 230.76 323.58 230.45 324.73 230.22 325.91 230 327.02 229.71 328.13 229.33 329.21 228.95 330.3 228.51 331.35 228.06 332.4 227.52 333.45 227.01 334.43 226.5 335.39 225.9 336.37 225.23 337.33 224.62 338.22 223.96 339.11 223.22 340.03 222.46 340.83 221.73 341.65 220.9 342.48 220.07 343.24 219.25 343.98 218.36 344.71 217.47 345.38 216.57 345.98 215.62 346.68 214.63 347.19 213.65 347.76 212.69 348.3 211.64 348.75 210.59 349.19 209.58 349.64 208.43 350.02 207.41"/>
    <polygon class="st1" points="453.1 230.99 453.32 230.99 453.42 230.99 453.64 230.99 455.42 230.99 457.2 230.83 458.92 230.6 460.64 230.22 462.35 229.84 464.01 229.4 465.66 228.79 467.29 228.22 468.84 227.49 470.34 226.72 471.84 225.83 473.33 224.94 474.67 223.96 476.03 222.94 477.37 221.79 478.55 220.62 475.78 229.33 499.67 229.33 520.32 165.77 496.08 165.77 484.97 200.32 484.82 200.76 484.37 202.26 483.92 203.34 483.42 204.42 482.81 205.38 482.14 206.33 481.41 207.25 480.55 208.05 479.76 208.91 478.87 209.58 477.88 210.24 476.83 210.85 475.78 211.26 474.67 211.74 473.55 212.09 472.44 212.41 471.23 212.57 469.99 212.69 469.45 212.6 468.94 212.47 468.4 212.31 467.89 212.09 467.44 211.9 467 211.58 466.62 211.26 466.24 210.91 465.85 210.47 465.57 210.05 465.35 209.58 465.12 209.1 464.9 208.59 464.84 207.99 464.74 207.44 464.68 206.87 464.84 205.92 465.06 204.93 477.59 165.77 453.48 165.77 439.1 210.4 438.84 211.13 438.72 211.9 438.56 212.57 438.49 213.3 438.27 214.19 438.11 215.08 437.99 215.91 437.99 216.8 438.05 218.23 438.27 219.57 438.56 220.9 439.04 222.17 439.54 223.35 440.21 224.56 441.04 225.61 441.83 226.56 442.82 227.49 443.87 228.28 444.98 229.05 446.19 229.62 447.43 230.1 448.71 230.45 450.04 230.73 451.47 230.83 452.08 230.99 452.81 230.99 452.97 230.99 453.1 230.99"/>
    <polygon class="st1" points="421.79 165.77 421.67 165.77 421.47 165.77 419.63 165.83 417.82 165.99 416.13 166.21 414.32 166.5 412.6 166.88 410.94 167.39 409.32 167.9 407.7 168.6 406.11 169.33 404.61 170.1 403.12 170.99 401.72 171.88 400.29 172.93 399.01 173.98 397.77 175.15 396.56 176.36 406.94 143.15 382.82 143.15 354.95 230.99 379.03 230.99 389.92 196.5 390.07 196.28 390.07 196.12 390.58 194.46 391.06 193.45 391.63 192.4 392.24 191.44 392.91 190.46 393.57 189.53 394.4 188.74 395.29 187.97 396.18 187.24 397.1 186.57 398.12 185.97 399.17 185.52 400.22 185.08 401.34 184.7 402.51 184.41 403.72 184.19 404.93 184.12 405.5 184.19 406.04 184.35 406.55 184.47 407.09 184.7 407.54 184.98 407.95 185.3 408.43 185.59 408.78 185.97 409.16 186.42 409.48 186.8 409.77 187.31 409.99 187.78 410.15 188.29 410.31 188.8 410.37 189.34 410.37 189.85 410.31 190.9 410.05 191.89 397.39 230.99 421.67 230.99 435.95 186.42 436.17 185.75 436.39 185.08 436.55 184.35 436.62 183.58 436.84 182.76 437 181.87 437.06 180.91 437.16 180.02 437.06 178.59 436.84 177.16 436.55 175.92 436.11 174.64 435.5 173.44 434.84 172.32 434.01 171.21 433.12 170.25 432.23 169.33 431.18 168.54 430.06 167.84 428.89 167.17 427.61 166.72 426.34 166.37 425.01 166.05 423.57 165.9 422.91 165.9 422.3 165.77 422.02 165.77 421.79 165.77"/>
    <path class="st1" d="M313.37,258.41v-13.49h-4.61v-2.77h12.53v2.77h-4.71v13.49h-3.21ZM349.86,252.46l3.28.95-.16.67-.29.6-.22.51-.32.54-.38.51-.35.35-.38.38-.45.38-.45.29-.51.29-.51.22-.54.16-.6.13-.6.1-.57.06h-1.59l-.76-.06-.73-.22-.76-.22-.67-.29-.67-.38-.6-.45-.51-.51-.51-.6-.45-.67-.38-.73-.35-.73-.22-.83-.16-.89-.16-.8v-.89l.06-.86.06-.89.16-.83.32-.83.29-.76.38-.76.45-.67.51-.57.6-.54.6-.45.67-.35.67-.38.76-.22.83-.16.83-.16h1.62l.67.1.76.13.6.25.67.19.51.32.6.35.45.38.6.6.45.7.35.8.38.89-3.44.83-.16-.57-.29-.54-.35-.51-.45-.38-.51-.29-.51-.22-.57-.16-.7-.06-.45.06h-.45l-.45.16-.38.13-.38.16-.35.22-.29.22-.32.38-.38.45-.32.45-.22.51-.22.6-.16.51-.13.6-.06.6v1.18l.06.6.13.54.16.57.22.54.22.45.32.51.38.38.32.29.29.29.35.25.38.13.38.16.38.16.45.06h.45l.67-.06.6-.16.6-.22.51-.38.45-.51.35-.6.29-.67.29-.83v.03h.01ZM393.35,250.3l.06,1.05.22.95.16.51.22.45.22.45.32.35.29.38.35.38.38.29.38.25.51.19.45.16.6.06.51.06.6-.06.51-.06.51-.16.45-.19.45-.25.38-.29.29-.38.29-.38.32-.45.22-.45.22-.45.16-.45.22-1.05.06-1.02-.06-1.05-.22-.95-.16-.51-.22-.45-.22-.38-.22-.45-.38-.38-.29-.32-.38-.29-.45-.22-.45-.22-.51-.16-.51-.06-.6-.06-.6.06-.51.06-.54.16-.45.22-.45.22-.38.29-.29.38-.38.38-.22.38-.22.45-.22.45-.16.45-.22,1.05-.06,1.05h.03-.01ZM390.07,250.36v-.51l.06-.6.06-.51.16-.6.38-1.18.51-1.11.38-.54.29-.51.38-.45.45-.45.35-.38.54-.38.45-.29.51-.32.76-.22.83-.22.89-.16h1.85l.83.16.8.22.76.29.67.32.67.45.6.45.57.6.45.57.45.6.38.67.29.73.32.86.13.83.16.8v1.75l-.16.8-.13.83-.32.76-.29.73-.38.67-.45.67-.45.6-.57.51-.6.45-.67.45-.67.35-.76.22-.8.22-.83.16h-1.72l-.89-.16-.73-.22-.76-.22-.73-.35-.67-.38-.6-.54-.51-.51-.51-.6-.45-.6-.38-.67-.29-.73-.32-.76-.16-.8-.16-.86v-.89l.03.03v-.03h0ZM408.56,258.41v-16.1h3.21v13.36h7.16v2.77h-10.37v-.03ZM459.75,258.41v-6.84l-5.76-9.42h3.72l3.66,6.43,3.66-6.43h3.66l-5.76,9.48v6.78h-3.21.03ZM324.44,258.41v-16.26h11.71v2.77h-8.49v3.56h7.92v2.77h-7.92v4.42h8.81v2.77h-11.99l-.03-.03h-.01ZM356.29,258.41v-16.26h3.21v6.43h7.22v-6.43h3.12v16.26h-3.12v-7.06h-7.22v7.06h-3.21ZM373.72,258.41v-16.26h2.77l7.48,10.91v-10.91h2.99v16.26h-2.93l-7.32-10.56v10.56h-2.99ZM423.13,250.3l.06,1.05.22.95.16.51.22.45.22.45.32.35.32.38.35.38.38.29.45.25.45.19.45.16.6.06.51.06.6-.06.54-.06.51-.16.45-.19.45-.25.38-.29.29-.38.38-.38.22-.45.22-.45.22-.45.16-.45.22-1.05.1-1.02-.1-1.05-.22-.95-.16-.51-.22-.45-.22-.38-.22-.45-.29-.38-.38-.32-.38-.29-.45-.22-.45-.22-.51-.16-.54-.06-.6-.06-.6.06-.54.06-.51.16-.45.22-.38.22-.45.29-.29.38-.32.38-.32.38-.22.45-.22.45-.16.45-.22,1.05-.06,1.05h.03ZM419.85,250.36v-.51l.06-.6.16-.51.06-.6.45-1.18.54-1.11.29-.54.32-.51.35-.45.45-.45.45-.38.45-.38.51-.29.45-.32.83-.22.83-.22.83-.16h1.88l.8.16.83.22.76.29.64.32.67.45.6.45.57.6.48.57.45.6.38.67.38.73.22.86.16.83.16.8v1.75l-.16.8-.16.83-.22.76-.38.73-.38.67-.38.67-.51.6-.51.51-.67.45-.57.45-.73.35-.76.22-.83.22-.8.16h-1.75l-.83-.16-.83-.22-.73-.22-.76-.35-.67-.38-.6-.54-.51-.51-.51-.6-.45-.6-.38-.67-.32-.73-.22-.76-.22-.8-.06-.86-.06-.89v.03h0l-.05-.03h0ZM446.32,252.46v-2.74h6.87v8.78h-2.55v-.95l-.95.45-1.05.38-.54.13-.57.1-.51.06h-.51l-1.27-.06-1.11-.16-.51-.16-.51-.22-.45-.22-.45-.22-.45-.29-.45-.32-.38-.29-.38-.38-.29-.45-.32-.35-.29-.45-.22-.51-.45-.99-.32-1.11-.16-1.02-.06-1.21.06-1.21.22-1.18.32-1.08.45-1.05.29-.45.32-.45.29-.45.38-.38.38-.38.45-.38.45-.29.51-.22.73-.35.89-.32,1.05-.16h1.78l.67.1.6.06.6.16.57.16.51.19.45.32.45.29.35.32.38.38.29.35.29.48.22.45.22.45.13.51.16.6-2.7.54-.22-.6-.29-.51-.38-.45-.45-.38-.57-.29-.6-.22-.67-.13h-1.34l-.45.06-.51.16-.45.16-.45.22-.38.22-.38.29-.32.32-.35.45-.22.45-.22.45-.16.51-.16.6-.06.54-.06.6v1.27l.06.6.06.51.16.6.16.54.22.45.32.45.29.45.32.29.38.29.38.22.45.22.45.16.51.16.45.06h.51l.83-.06.67-.06.6-.1.57-.16.45-.22.45-.22.38-.29.45-.29v-2h-4.33l.03-.13h-.01Z"/>
    <path class="st1" d="M269.95,192.17l2.32-.45,2-.45,1.65-.45,1.24-.29,2.23-.51,2.26-.57,2.32-.7,2.29-.8.29-.67.32-.67.22-.67.16-.76.06-.73.06-.76-.06-.73-.06-.76-.76-.35-.83-.38-.83-.35-.83-.29-.83-.32-.73-.13-.73-.22-.76-.1-1.24-.06h-1.34l-1.27.16-1.18.22-1.21.32-1.18.35-1.11.48-.99.51-.73.51-.76.45-.95.83-1.05.95-.95,1.21-.95,1.34-22.84-2.48.89-1.43.89-1.34.89-1.21.89-1.11.92-1.05.83-.95.89-.92.95-.8.92-.89,1.05-.83.95-.83,1.05-.76,1.11-.73,1.11-.76,1.11-.67,1.21-.6,1.21-.67,1.27-.51,1.27-.51,1.27-.45,1.37-.45,1.4-.45,1.43-.29,1.4-.29,1.56-.32,1.56-.16,1.56-.22,1.59-.13,1.62-.1,1.56-.06h5.44l2.16.06,2.1.1,2,.13,1.94.16,1.88.22,1.72.22,1.5.22,1.56.29,1.5.38,1.43.51,1.37.6,1.27.73,1.21.89,1.11.89,1.05,1.11.95,1.11.8,1.21.76,1.34.6,1.37.51,1.4.29,1.5.22,1.59.06,1.56v.83l-.06,1.24-.1.76-.16.73-.13.67-.22.76-.83,2.67-1.02,3.12-1.11,3.59-1.34,4.1-1.5,4.64-1.72,5.31-1.88,5.89-2.07,6.65-.22.73-.1.76-.06.73.06.73.1.67.13.7.16.57.22.54h-23.26v-.13l-.29-.54-.22-.51-.22-.51-.16-.51-.22-1.21v-1.94l.1-.67.16-.7.22-.73-1.65,1.34-1.62,1.11-1.62.99-1.65.89-1.11.6-1.05.51-.95.48-1.05.35-1.75.67-1.85.6-1.94.51-1.94.38-2,.38-2.1.22-2,.06h-3.66l-1.5-.06-1.43-.16-1.27-.13-1.11-.22-1.11-.25-.95-.29-.92-.38-.83-.35-.83-.48-.67-.45-.67-.54-.67-.51-.57-.6-.54-.57-.51-.6-.45-.7-.45-.6-.35-.64-.38-.7-.32-.73-.22-.76-.22-.73-.22-.76-.16-.83-.06-.83-.1-.83v-.83l.1-.89.16-.89.13-.89.25-.95.29-.99.32-.95.35-.86.38-.86.45-.83.35-.73.51-.76.45-.73,1.11-1.34,1.21-1.27,1.27-1.21,1.34-1.21,1.59-1.11,1.78-.99,1.94-.99,2.1-.89,2.32-.83,2.51-.76,2.67-.67,2.9-.6,1.62-.29,1.65-.32,1.5-.29,1.5-.22,1.43-.29,1.34-.22,1.21-.22,1.18-.29h-.13v.06h0ZM282.8,199.78l-1.34.45-1.43.38-1.34.45-1.4.38-1.43.29-1.4.38-1.43.35-1.43.29-.89.22-.76.22-3.05.89-2.55.83-1.02.45-.99.38-.83.45-.67.38-.57.45-.54.45-.51.51-.51.51-.38.6-.38.54-.35.6-.22.6-.22.73-.16.7v.6l.06.64.16.6.22.54.29.51.32.45.51.51.45.45.54.29.6.22.67.13.73.16.89.06h.89l1.62-.16,1.72-.29.83-.16.83-.22.83-.22.83-.32.76-.32.73-.35.99-.51.95-.51.89-.51.73-.6.73-.7.76-.57.6-.67.6-.67.6-.7.6-.8.51-.83.54-.92.45-.89.45-.95.45-.99.38-1.02,1.11-3.82-.03.06h0Z"/>
    <path class="st1" d="M554.42,192.17l2.32-.45,1.94-.45,1.62-.45,1.34-.29,2.23-.51,2.23-.57,2.23-.7,2.39-.8.29-.67.29-.67.22-.67.16-.76.1-.73v-1.56l-.1-.73-.73-.38-.83-.35-.8-.29-.83-.29-1.62-.45-1.43-.29-1.34-.06h-1.27l-1.27.16-1.27.22-1.21.32-1.11.35-1.11.48-1.05.51-.76.51-.64.45-1.05.83-.95.95-.95,1.21-1.05,1.34-22.78-2.48.92-1.43.89-1.34.83-1.21.89-1.11.89-1.05.89-1.05.89-.89.89-.83.95-.92,1.02-.83.99-.83,1.02-.76,1.11-.73,1.11-.67,1.11-.67,1.21-.67,1.18-.6,1.18-.51,1.37-.51,1.27-.45,1.34-.45,1.43-.38,1.34-.38,1.5-.29,1.56-.32,1.56-.22,1.56-.16,1.56-.13,1.65-.1,1.56-.06h5.44l2.16.06,2.1.1,2.04.13,1.94.16,1.78.22,1.72.22,1.56.22,1.56.29,1.43.38,1.43.51,1.4.6,1.27.73,1.21.89,1.11.89,1.05,1.11.99,1.11.83,1.21.73,1.34.6,1.37.45,1.4.38,1.5.22,1.59.06,1.56-.06.83-.06,1.24-.29,1.5-.38,1.43-.89,2.67-.95,3.12-1.11,3.59-1.24,4.1-1.5,4.64-1.65,5.31-1.88,5.89-2.16,6.65-.16.67-.06.7-.1.76v.76l.16.73.1.67.22.67.22.54h-23.29v-.13l-.29-.54-.22-.51-.22-.51-.16-.51-.22-1.21-.1-1.21.1-.76.06-.67.16-.7.22-.73-1.65,1.34-1.62,1.11-1.72.99-1.56.89-1.11.6-1.05.51-.95.48-1.05.35-1.78.67-1.88.6-1.88.51-2.04.38-2,.38-2,.22-2.1.06h-3.66l-1.43-.06-1.4-.16-1.27-.13-1.21-.22-1.05-.25-.95-.29-.89-.38-.92-.35-.73-.48-.73-.45-.7-.54-.57-.51-.6-.6-.51-.57-.6-.6-.45-.7-.38-.6-.38-.64-.38-.7-.29-.73-.32-.76-.22-.73-.13-.76-.16-.83-.06-.83-.1-.83v-.83l.1-.89.06-.89.22-.89.16-.95.32-.99.35-.95.38-.86.38-.86.35-.83.45-.73.45-.76.51-.73,1.11-1.34,1.11-1.27,1.27-1.21,1.43-1.21,1.56-1.11,1.69-.99,1.94-.99,2.16-.89,2.32-.83,2.48-.76,2.74-.67,2.93-.6,1.65-.29,1.56-.32,1.56-.29,1.5-.22,1.34-.29,1.37-.22,1.27-.22,1.21-.29.03-.03h0l-.07.05h0ZM567.28,199.78l-1.34.45-1.4.38-1.43.45-1.34.38-1.43.29-1.4.38-1.43.35-1.43.29-.89.22-.73.22-3.15.89-2.48.83-1.11.45-.89.38-.83.45-.67.38-.6.45-.6.45-.51.51-.45.51-.45.6-.38.54-.29.6-.22.6-.22.73-.13.7v.6l.06.64.16.6.19.54.32.51.29.45.45.51.51.45.54.38.6.22.67.22.73.16h1.78l1.65-.16,1.56-.29,1.59-.38,1.43-.45,1.46-.6,1.34-.67,1.24-.83,1.27-.83,1.11-.95,1.15-1.05.95-1.11.92-1.21.8-1.27.76-1.34.6-1.4.51-1.43,1.11-3.82.03.03h.02,0Z"/>
  </g>
  <path class="st2" d="M798,2v396H2V2h796M800,0H0v400h800V0h0Z"/>
</svg>