<?xml version="1.0" encoding="UTF-8"?>
<svg id="Layer_1" xmlns="http://www.w3.org/2000/svg" width="800" height="400" version="1.1" viewBox="0 0 800 400">
  <!-- Generator: Adobe Illustrator 30.0.0, SVG Export Plug-In . SVG Version: 2.1.1 Build 123)  -->
  <defs>
    <style>
      .st0 {
        fill: #fff;
      }

      .st1 {
        fill: #b3b3b3;
      }

      .st2 {
        fill: #737373;
      }
    </style>
  </defs>
  <rect class="st0" x=".5" y=".5" width="800" height="400"/>
  <g id="Siedle">
    <path class="st1" d="M166.65,162.09v-9.56s-7.06-2.26-19.19-2.26c-20.54,0-28.78,11.96-28.78,23.98,0,17.13,14.08,22.7,24.43,27.98,10.36,5.28,20.09,10.36,20.09,21.51s-8.55,18.8-20.99,18.8-22.94-4.66-22.94-4.66v9.77s8.55,2.4,21.9,2.4,31.18-7.23,31.18-26.76-16.2-24.43-27.74-31.04c-11.54-6.6-17.48-10.01-17.48-19.01,0-10.39,8.24-16.09,18.98-16.09,11.99,0,20.54,4.97,20.54,4.97"/>
    <path class="st1" d="M220.31,162.09v-9.56s-7.06-2.26-19.19-2.26c-20.54,0-28.78,11.96-28.78,23.98,0,17.13,14.08,22.7,24.43,27.98,10.36,5.28,20.09,10.36,20.09,21.51s-8.55,18.8-20.99,18.8-22.94-4.66-22.94-4.66v9.77s8.55,2.4,21.9,2.4,31.18-7.23,31.18-26.76-16.2-24.43-27.74-31.04c-11.54-6.6-17.48-10.01-17.48-19.01,0-10.39,8.24-16.09,18.98-16.09,11.99,0,20.54,4.97,20.54,4.97"/>
    <path class="st1" d="M273.97,162.09v-9.56s-7.06-2.26-19.19-2.26c-20.54,0-28.78,11.96-28.78,23.98,0,17.13,14.08,22.7,24.43,27.98,10.36,5.28,20.09,10.36,20.09,21.51s-8.55,18.8-20.99,18.8-22.94-4.66-22.94-4.66v9.77s8.55,2.4,21.9,2.4,31.18-7.23,31.18-26.76-16.2-24.43-27.74-31.04-17.45-10.01-17.45-19.01c0-10.39,8.24-16.09,18.94-16.09,11.99,0,20.54,4.97,20.54,4.97"/>
    <path class="st1" d="M372.16,165.54l.14-12.69s-9.91-2.85-22.04-2.85c-18.59,0-31.35,8.34-31.35,24.29,0,17.13,12.89,24.22,23.25,29.47s21.9,12.62,21.9,21.97-5.07,15.19-17.55,15.19-26.1-8.55-26.1-8.55l.14,14.42s11.54,4.21,24.89,4.21c14.39,0,33.89-6.46,33.89-27.67,0-19.57-13.17-24.16-24.75-30.76-14.25-8.13-21.37-13.31-21.37-19.64,0-10.39,6.43-13.69,14.91-13.69,11.99,0,23.98,6.33,23.98,6.33"/>
    <rect class="st1" x="393.74" y="151.88" width="15.15" height="97.42"/>
    <polygon class="st1" points="430.02 151.88 430.02 249.3 481.29 249.3 481.29 239.53 444.87 239.53 444.87 203.45 478.27 203.45 478.27 193.83 444.87 193.83 444.87 161.33 480.07 161.33 480.07 151.88 430.02 151.88"/>
    <path class="st1" d="M516.22,151.88h-21.58v97.42h20.99c21.44,0,43.76-4.21,43.76-50.99s-29.82-46.47-43.17-46.47M541.17,223.37c-3.79,10.46-10.74,16.16-20.16,16.16h-11.54v-78.51h9.45c4.27,0,13.9.17,19.74,10.01,3.34,5.63,5,14.56,5,28.19,0,8.76,0,17.38-2.47,24.12"/>
    <polygon class="st1" points="571.38 151.88 571.38 249.3 622.05 249.3 622.05 238.77 586.81 238.77 586.81 151.88 571.38 151.88"/>
    <polygon class="st1" points="631.05 151.88 631.05 249.3 682.32 249.3 682.32 239.53 645.89 239.53 645.89 203.45 679.29 203.45 679.29 193.83 645.89 193.83 645.89 161.33 681.1 161.33 681.1 151.88 631.05 151.88"/>
  </g>
  <path class="st2" d="M798,2v396H2V2h796M800,0H0v400h800V0h0Z"/>
</svg>