<svg width="74" height="66" viewBox="0 0 74 66" fill="none" xmlns="http://www.w3.org/2000/svg">
<path d="M14.1223 30.541C12.0183 26.937 11.4193 22.277 12.9213 18.076C14.1223 14.616 16.5263 11.912 19.3803 10.412" stroke="#1C1C1B" stroke-width="2.8542" stroke-miterlimit="10" stroke-linejoin="round"/>
<path d="M5.40714 35.497C1.80514 29.339 0.902113 21.83 3.45511 14.918C5.40711 9.208 9.3111 5.003 14.1221 2" stroke="#1C1C1B" stroke-width="2.8542" stroke-miterlimit="10" stroke-linejoin="round"/>
<path d="M59.6403 30.541C61.7443 26.937 62.3463 22.277 60.8383 18.076C59.6403 14.616 57.2343 11.912 54.5303 10.412" stroke="#1C1C1B" stroke-width="2.8542" stroke-miterlimit="10" stroke-linejoin="round"/>
<path d="M68.3492 35.497C71.9592 29.339 72.8581 21.83 70.3041 14.918C68.3491 9.208 64.4461 5.003 59.6401 2" stroke="#1C1C1B" stroke-width="2.8542" stroke-miterlimit="10" stroke-linejoin="round"/>
<path d="M36.9562 65.3931C33.4992 65.3931 30.7962 62.8391 30.3472 59.6851H43.4111C42.9681 62.8401 40.2602 65.3931 36.9562 65.3931Z" fill="#1C1C1B"/>
<path d="M58.2862 57.881H15.3232V53.828C20.5822 52.623 24.6412 41.959 24.6412 28.739C24.6412 22.129 30.0452 16.717 36.6532 16.717C43.2662 16.717 48.6732 22.129 48.6732 28.739C48.6732 41.959 52.7312 52.623 57.9872 53.828V57.881H58.2862Z" fill="#1C1C1B"/>
</svg>
