<svg width="72" height="72" viewBox="0 0 72 72" fill="none" xmlns="http://www.w3.org/2000/svg">
<path d="M69.601 2H2V69.598H69.601V2Z" stroke="#1C1C1B" stroke-width="3.6054"/>
<path d="M71.2262 37.5969H44.4712" stroke="#1C1C1B" stroke-width="3.4025"/>
<path d="M2.66992 37.597H23.5639L46.8809 28.283" stroke="#1C1C1B" stroke-width="4.0176"/>
<path d="M28.4408 37.3019C28.4408 39.6979 26.6378 41.6549 24.2358 41.6549C21.9758 41.6549 20.0278 39.6989 20.0278 37.3019C20.0278 35.0429 21.9758 33.0869 24.2358 33.0869C26.6378 33.0869 28.4408 35.0429 28.4408 37.3019Z" fill="#1C1C1B"/>
<path d="M51.573 37.446C51.573 39.855 49.77 41.655 47.366 41.655C44.962 41.655 43.165 39.855 43.165 37.446C43.165 35.195 44.962 33.24 47.366 33.24C49.77 33.24 51.573 35.195 51.573 37.446Z" fill="#1C1C1B"/>
</svg>
