<svg width="58" height="71" viewBox="0 0 58 71" fill="none" xmlns="http://www.w3.org/2000/svg">
<path d="M25.4243 34.2529H32.1823L35.9423 27.6429H28.7313L25.4243 34.2529Z" fill="#1C1C1B"/>
<path d="M37.8911 34.2529H44.6531L48.4091 27.6429H41.1961L37.8911 34.2529Z" fill="#1C1C1B"/>
<path d="M50.2114 34.2529H57.8734V27.6429H53.5164L50.2114 34.2529Z" fill="#1C1C1B"/>
<path d="M3.34409 34.2529H19.8651L23.6211 27.6429H6.19508C6.49808 27.1929 6.19508 25.5409 6.19508 25.2399L21.9681 18.9319L16.5641 13.9709L1.09109 19.9829L3.34309 22.9829C1.53809 22.9829 0.0380859 24.3399 0.0380859 26.2899C0.0380859 28.0909 1.53809 29.5929 3.34309 29.5929L3.34409 34.2529ZM1.53909 26.2889C1.53909 25.2389 2.28909 24.6369 3.19109 24.6369C4.24209 24.6369 4.84109 25.3899 4.84109 26.2889C4.84109 27.1919 3.94109 27.9439 3.19109 27.9439C2.28909 27.9439 1.53909 27.1919 1.53909 26.2889Z" fill="#1C1C1B"/>
<path d="M33.5391 14.423L28.1311 9.46301L21.3691 12.168L27.0781 16.976L33.5391 14.423Z" fill="#1C1C1B"/>
<path d="M50.2113 7.812L54.4184 6.158L52.1644 0L44.6523 2.856L50.2113 7.812Z" fill="#1C1C1B"/>
<path d="M45.1055 9.91296L39.6955 4.95996L32.9355 7.66396L38.6445 12.318L45.1055 9.91296Z" fill="#1C1C1B"/>
<path d="M6.49834 26.441C6.49834 25.988 6.49833 25.541 6.19533 24.937L21.9683 18.778L16.5643 13.818L1.09134 19.832L2.14233 22.982C0.488333 23.586 -0.412668 25.389 0.185332 27.192C0.935332 28.843 2.74233 29.894 4.39633 29.141L6.04634 33.497M1.69133 26.888C1.23833 25.988 1.83934 24.937 2.74234 24.636C3.49434 24.185 4.54534 24.785 4.99434 25.54C5.44334 26.44 4.84233 27.491 3.94133 27.943C2.89133 28.242 1.84033 27.642 1.69133 26.888Z" fill="#1C1C1B"/>
<path d="M57.8732 36.9561H3.34424V57.2331H57.8732V36.9561Z" fill="#1C1C1B"/>
<path d="M57.8732 59.635H3.34424V70.302H57.8732V59.635Z" fill="#1C1C1B"/>
</svg>
