<svg width="57" height="66" viewBox="0 0 57 66" fill="none" xmlns="http://www.w3.org/2000/svg">
<path fill-rule="evenodd" clip-rule="evenodd" d="M27.0687 0.179737C28.1332 -0.289234 29.3775 0.191164 29.8478 1.25274L39.856 23.8437C40.0228 24.2202 40.0751 24.6373 40.0062 25.0432L37.9284 24.6929C40.0062 25.0432 40.0063 25.0427 40.0062 25.0432L40.0055 25.0476L40.0044 25.0541L40.0011 25.073L39.9901 25.1338C39.9808 25.1842 39.9676 25.2541 39.9502 25.3404C39.9157 25.5125 39.8644 25.7524 39.7955 26.0356C39.66 26.592 39.4456 27.3596 39.1374 28.121C38.8484 28.8349 38.3905 29.7666 37.6715 30.4642C37.293 30.8315 36.769 31.2053 36.0877 31.3866C35.5393 31.5325 34.9817 31.5284 34.447 31.3934H28.9767V39.2126C28.9767 40.3732 28.0332 41.314 26.8694 41.314H18.3929C18.4356 42.3421 18.5812 43.6427 18.9635 44.9567C19.7681 47.7223 21.5191 50.3558 25.6085 50.9844C26.1921 51.0741 26.7112 51.4038 27.0394 51.8933C27.3675 52.3828 27.4747 52.9871 27.3348 53.5591L25.2875 53.0612C27.3348 53.5591 27.335 53.5584 27.3348 53.5591L27.3331 53.5659L27.3305 53.5763L27.3226 53.6078L27.2954 53.7119C27.2722 53.799 27.2387 53.9208 27.1944 54.0724C27.1061 54.3753 26.9742 54.7995 26.7949 55.3053C26.4388 56.31 25.8839 57.6704 25.0924 59.0521C23.5818 61.6888 20.81 65.0673 16.3658 65.1423L16.3301 65.1429L2.10729 65.1426C0.943467 65.1426 0 64.2018 0 63.0412C0 61.8807 0.943467 60.9399 2.10729 60.9399H16.3105C18.4023 60.8965 20.1039 59.2872 21.4328 56.9674C21.9113 56.1323 22.2903 55.2888 22.5768 54.5592C18.0144 53.0031 15.8589 49.3692 14.9158 46.1277C14.3764 44.2737 14.2093 42.5033 14.1723 41.2135C14.1537 40.5636 14.1677 40.0226 14.1872 39.6372C14.1969 39.4442 14.208 39.2894 14.2171 39.1784C14.2217 39.1228 14.2258 39.0782 14.229 39.0452L14.2331 39.0044L14.2346 38.9907L14.2351 38.9856C14.2352 38.9846 14.2356 38.9816 16.3301 39.2126L14.2356 38.9816C14.3537 37.9169 15.2559 37.1113 16.3301 37.1113H24.7621V29.2921C24.7621 28.1315 25.7056 27.1907 26.8694 27.1907H34.7703C34.8192 27.1907 34.8679 27.1924 34.9165 27.1958C35.0049 27.0473 35.1129 26.835 35.2292 26.5479C35.4325 26.0455 35.5907 25.4923 35.6999 25.0439C35.7098 25.0034 35.7191 24.9641 35.728 24.9262L25.9926 2.95103C25.5223 1.88946 26.0041 0.648707 27.0687 0.179737Z" fill="#1C1C1B"/>
<path fill-rule="evenodd" clip-rule="evenodd" d="M38.2974 37.4978C39.2851 37.0504 40.4508 37.4834 40.901 38.4648L39.1127 39.275C40.901 38.4648 40.9014 38.4657 40.9018 38.4665L40.9026 38.4684L40.9046 38.4726L40.9093 38.483L40.9219 38.5115C40.9318 38.5339 40.9445 38.5632 40.9596 38.599C40.9899 38.6706 41.0299 38.7686 41.0768 38.8912C41.1705 39.136 41.2923 39.4802 41.4184 39.9081C41.6695 40.7607 41.9428 41.9636 42.0372 43.386C42.2269 46.2443 41.6912 50.0416 38.7693 53.573C38.0799 54.4062 36.8413 54.5262 36.0029 53.8412C35.1644 53.1561 35.0436 51.9254 35.733 51.0922C37.8622 48.5189 38.2572 45.7873 38.1149 43.643C38.0433 42.5641 37.8349 41.6472 37.6458 41.0054C37.5518 40.686 37.4638 40.4394 37.4029 40.2801C37.3724 40.2006 37.3489 40.1433 37.3348 40.1101L37.3214 40.0787L37.3219 40.0798L37.323 40.0822L37.3236 40.0835C36.8745 39.1024 37.3102 37.945 38.2974 37.4978ZM37.3214 40.0787L37.3206 40.0771C37.3205 40.0767 37.3204 40.0765 37.3204 40.0765C37.3204 40.0766 37.3207 40.0773 37.3214 40.0787Z" fill="#1C1C1B"/>
<path fill-rule="evenodd" clip-rule="evenodd" d="M45.0645 33.4298C46.0437 32.9738 47.1995 33.4151 47.6458 34.4155L45.8727 35.2412C47.6458 34.4155 47.6454 34.4146 47.6458 34.4155L47.6476 34.4194L47.6498 34.4244L47.6557 34.4378L47.6732 34.4782C47.6873 34.5112 47.7062 34.556 47.7293 34.6123C47.7756 34.7248 47.8386 34.8834 47.9135 35.0845C48.0632 35.4865 48.2609 36.0603 48.4667 36.7783C48.8773 38.2112 49.3251 40.237 49.4798 42.6305C49.79 47.4311 48.9179 53.7645 44.1683 59.6663C43.4848 60.5156 42.2568 60.638 41.4255 59.9398C40.5942 59.2416 40.4744 57.9871 41.1578 57.1378C45.1214 52.2128 45.8542 46.9658 45.5909 42.8927C45.4589 40.8493 45.0754 39.1149 44.7264 37.8969C44.5523 37.2894 44.3881 36.815 44.2709 36.5002C44.2123 36.3429 44.1656 36.2259 44.1355 36.1525L44.1033 36.0756L44.099 36.0654C43.6537 35.0654 44.0857 33.8856 45.0645 33.4298ZM44.0977 36.0626C44.0975 36.062 44.0976 36.0623 44.0977 36.0626V36.0626Z" fill="#1C1C1B"/>
<path fill-rule="evenodd" clip-rule="evenodd" d="M52.5888 29.9806C53.5953 29.6032 54.7146 30.1203 55.0887 31.1356L53.2662 31.819C55.0887 31.1356 55.0891 31.1365 55.0894 31.1374L55.0902 31.1395L55.0921 31.1449L55.0978 31.1604L55.1153 31.2097C55.1298 31.2507 55.1496 31.3077 55.1741 31.3804C55.2231 31.5256 55.2907 31.7331 55.3712 31.9984C55.5322 32.5286 55.7451 33.2909 55.9637 34.2487C56.4004 36.1619 56.863 38.8686 56.9749 42.0727C57.1988 48.4798 56.0201 56.9523 50.3511 64.9964C49.7289 65.8792 48.515 66.0862 47.6398 65.4586C46.7645 64.831 46.5594 63.6066 47.1815 62.7237C52.2205 55.5738 53.2918 48.0258 53.0886 42.2108C52.987 39.3039 52.5668 36.8492 52.1741 35.1288C51.978 34.2697 51.7896 33.5971 51.6528 33.1467C51.5845 32.9216 51.5292 32.7523 51.4925 32.6434C51.4741 32.5889 51.4604 32.5495 51.452 32.5258L51.4436 32.5023L51.4435 32.5021C51.4428 32.5001 51.4425 32.4991 51.4425 32.4991L51.4428 32.4999L51.4431 32.5009C51.0699 31.486 51.5826 30.3578 52.5888 29.9806Z" fill="#1C1C1B"/>
<path fill-rule="evenodd" clip-rule="evenodd" d="M13.5709 10.7673C13.7213 10.7673 13.8432 10.6556 13.8432 10.5178C13.8432 10.38 13.7213 10.2683 13.5709 10.2683C13.4206 10.2683 13.2987 10.38 13.2987 10.5178C13.2987 10.6556 13.4206 10.7673 13.5709 10.7673ZM9.49951 10.5178C9.49951 8.45659 11.3223 6.78564 13.5709 6.78564C15.8195 6.78564 17.6424 8.45658 17.6424 10.5178C17.6424 12.579 15.8195 14.2499 13.5709 14.2499C11.3223 14.2499 9.49951 12.579 9.49951 10.5178Z" fill="#1C1C1B"/>
</svg>
