<svg width="67" height="66" viewBox="0 0 67 66" fill="none" xmlns="http://www.w3.org/2000/svg">
<path fill-rule="evenodd" clip-rule="evenodd" d="M32.3872 0.318635C33.0098 -0.106228 33.8287 -0.10621 34.4512 0.31868L66.0355 21.8758C66.536 22.2174 66.8354 22.7845 66.8354 23.3909C66.8355 23.9973 66.5361 24.5644 66.0356 24.9061L34.4513 46.4661C33.8287 46.891 33.0097 46.8911 32.3871 46.4661L0.799918 24.9061C0.299419 24.5645 -1.91027e-05 23.9973 9.14024e-10 23.3909C1.91045e-05 22.7845 0.299493 22.2173 0.800013 21.8757L32.3872 0.318635ZM5.08401 23.391L33.4191 42.7313L61.7516 23.391L33.4191 4.05338L5.08401 23.391Z" fill="#1C1C1B"/>
<path fill-rule="evenodd" clip-rule="evenodd" d="M0.352897 30.827C0.949795 30.0103 2.09594 29.832 2.91287 30.4287L33.4191 52.7106L63.9225 30.4288C64.7394 29.832 65.8856 30.0103 66.4825 30.8269C67.0794 31.6436 66.9011 32.7893 66.0842 33.3861L34.5 56.4574C33.8563 56.9277 32.9822 56.9277 32.3384 56.4575L0.751316 33.3861C-0.0656227 32.7894 -0.244001 31.6437 0.352897 30.827Z" fill="#1C1C1B"/>
<path fill-rule="evenodd" clip-rule="evenodd" d="M0.352962 40.0168C0.949909 39.2002 2.09606 39.022 2.91296 39.6187L33.4191 61.9009L63.9224 39.6187C64.7393 39.022 65.8854 39.2002 66.4824 40.0167C67.0794 40.8332 66.9012 41.9789 66.0843 42.5756L34.5001 65.6473C33.8563 66.1176 32.9821 66.1176 32.3383 65.6474L0.751227 42.5756C-0.0656758 41.9789 -0.243985 40.8333 0.352962 40.0168Z" fill="#1C1C1B"/>
</svg>
