<svg width="74" height="74" viewBox="0 0 74 74" fill="none" xmlns="http://www.w3.org/2000/svg">
<path d="M42.666 21.479L41.3109 19.8309L42.666 21.479ZM51.2299 24.6359L48.825 27.491L51.2299 24.6359ZM22.5319 54.8299L14.5769 62.9429L17.7269 65.6409L25.3909 57.6789L30.3439 66.2449L28.2419 54.6789L30.799 51.975L32.299 57.8299L33.9529 56.7789L32.7509 50.169L35.299 47.767L37.4049 49.8729L40.562 48.9729L41.614 52.578L36.9529 57.8299L38.158 59.4819L42.2109 54.829L43.2679 58.8869L35.299 68.2L44.3179 62.6399L47.3189 73.905L50.9279 72.855L47.7719 61.885H58.2899L46.567 57.987L45.5179 54.075L51.2299 55.88L51.5259 53.7779L44.77 51.678L43.7169 48.0679L47.0259 47.32L47.9249 44.3139L51.2299 45.363L53.6259 51.678H55.4319L53.6259 45.967L57.2319 47.017L61.1379 58.2829V48.3699L71.9559 51.2189L73.1589 47.018L62.1909 44.315L67.5939 35.3009L58.4359 43.414L54.3839 42.358L58.8829 38.453L57.231 37.105L51.976 42.0549L48.3679 41.156L49.1239 37.703L46.5649 35.3009L49.1239 32.7479L56.1819 33.948L56.783 32.1439L50.9279 31.092L53.6259 28.086L65.494 30.1919L56.3309 25.381L64.2929 17.1219L61.1389 14.4189L53.6259 22.38M46.424 37.704C46.424 38.158 46.2699 38.9049 45.9649 39.6529L42.666 38.905L44.916 36.3509C45.819 36.9549 46.27 37.402 46.424 37.704ZM38.0059 46.415L36.9529 45.3639L39.0579 43.259L39.9639 45.9689L38.0059 46.415ZM44.77 44.466L43.1179 44.9129L42.2119 42.208L45.218 43.1069C44.916 43.7109 44.916 44.163 44.77 44.466Z" fill="#1C1C1B"/>
<path d="M34.252 0V13.969" stroke="#1C1C1B" stroke-width="3.7556" stroke-miterlimit="10"/>
<path d="M13.668 34.548H0" stroke="#1C1C1B" stroke-width="3.7556" stroke-miterlimit="10"/>
<path d="M58.4379 10.063L48.825 19.976" stroke="#1C1C1B" stroke-width="3.7556" stroke-miterlimit="10"/>
<path d="M19.8279 49.421L10.0688 59.038" stroke="#1C1C1B" stroke-width="3.7556" stroke-miterlimit="10"/>
<path d="M18.329 18.624L8.41406 8.70996" stroke="#1C1C1B" stroke-width="3.7556" stroke-miterlimit="10"/>
<mask id="mask0_315_17" style="mask-type:luminance" maskUnits="userSpaceOnUse" x="0" y="8" width="60" height="53">
<path d="M59.749 11.298L11.241 60.435L0 36.492L19.828 17.243L32.049 13.667L56.932 8.70996L59.749 11.298Z" fill="white"/>
</mask>
<g mask="url(#mask0_315_17)">
<path d="M50.176 34.5479C50.176 43.5659 43.1171 50.9239 34.2521 50.9239C25.3911 50.9239 18.176 43.5659 18.176 34.5479C18.176 25.6849 25.3911 18.3269 34.2521 18.3269C43.1181 18.3269 50.176 25.6849 50.176 34.5479Z" fill="#1C1C1B"/>
</g>
</svg>
