<svg width="65" height="65" viewBox="0 0 65 65" fill="none" xmlns="http://www.w3.org/2000/svg">
<path d="M14.9 0C6.58701 0 0 6.589 0 14.899V29.369H29.803V0H14.9ZM34.668 0V29.369H64.468V14.899C64.468 6.588 57.88 0 49.572 0H34.668ZM13.755 9.311H16.185V13.897H20.634V16.187H16.185V20.772H13.755V16.187H9.31401V13.897H13.755V9.311ZM44.414 13.178H55.445V16.045H44.414V13.178ZM0 35.1V49.57C0 57.881 6.58801 64.469 14.9 64.469H29.802V35.1H0ZM34.668 35.1V64.469H49.571C57.88 64.469 64.467 57.88 64.467 49.57V35.1H34.668ZM9.59801 42.259H13.179L14.187 44.263C14.47 44.84 14.755 45.412 15.046 45.842H15.185C15.331 45.276 15.616 44.7 15.907 44.124L16.762 42.259H20.343L16.905 47.709L20.343 53.724H16.762L15.761 51.573C15.331 50.998 15.185 50.428 14.9 49.858H14.755C14.616 50.572 14.325 50.998 14.04 51.573L13.039 53.724H9.59801L13.039 47.849L9.59801 42.259ZM44.553 43.983H55.445V46.706H44.553V43.983ZM44.553 49.288H55.445V51.863H44.553V49.288Z" fill="#1C1C1B"/>
</svg>
