<svg width="68" height="68" viewBox="0 0 68 68" fill="none" xmlns="http://www.w3.org/2000/svg">
<path d="M26.843 15.326C26.843 10.968 23.2359 7.36401 18.8779 7.36401C14.5199 7.36401 10.9189 10.968 10.9189 15.326C10.9189 17.723 12.1159 19.981 14.0729 21.477C12.1159 22.986 10.9189 25.389 10.9189 27.791C10.9189 30.044 12.1159 32.295 13.9189 33.798C12.1159 35.306 10.9189 37.552 10.9189 39.961C10.9189 42.364 12.1159 44.616 13.9189 46.124C12.1159 47.621 10.9189 49.879 10.9189 52.276C10.9189 56.784 14.5209 60.237 18.8779 60.237C23.2349 60.237 26.843 56.784 26.843 52.276C26.843 49.879 25.7889 47.621 23.8389 46.124C25.7889 44.616 26.843 42.364 26.843 39.961C26.843 37.552 25.7889 35.306 23.9859 33.798C25.7899 32.295 26.843 30.044 26.843 27.791C26.843 25.389 25.7889 22.985 23.8389 21.477C25.7889 19.981 26.843 17.723 26.843 15.326Z" stroke="#1C1C1B" stroke-width="2.5037" stroke-miterlimit="10"/>
<path d="M67.605 4.65997C67.605 4.20697 67.148 3.754 66.699 3.754H63.846V0.903992C63.846 0.451992 63.391 0 62.947 0H0.904007C0.453007 0 0 0.451992 0 0.903992V66.698C0 67.15 0.453007 67.597 0.904007 67.597H62.947C63.391 67.597 63.846 67.15 63.846 66.698V63.844H66.699C67.148 63.844 67.605 63.392 67.605 62.944V4.65997ZM55.584 14.572C55.584 16.98 54.533 19.378 52.58 20.885C54.533 22.382 55.584 24.64 55.584 27.037C55.584 29.444 54.533 31.697 52.726 33.199C54.534 34.702 55.584 36.948 55.584 39.357C55.584 41.766 54.533 44.012 52.726 45.52C54.534 47.023 55.584 49.274 55.584 51.677C55.584 56.035 52.126 59.634 47.772 59.634C43.413 59.634 39.806 56.035 39.806 51.677C39.806 49.274 40.86 47.023 42.816 45.52C40.86 44.012 39.806 41.766 39.806 39.357C39.806 36.948 40.86 34.702 42.665 33.199C40.859 31.697 39.806 29.444 39.806 27.037C39.806 24.64 40.86 22.382 42.816 20.885C40.86 19.377 39.806 16.98 39.806 14.572C39.806 10.215 43.412 6.75998 47.772 6.75998C52.126 6.75998 55.584 10.214 55.584 14.572ZM31.849 3.75299V63.843H3.755V3.75299H31.849Z" fill="#1C1C1B"/>
</svg>
