<svg width="69" height="70" viewBox="0 0 69 70" fill="none" xmlns="http://www.w3.org/2000/svg">
<path d="M10.668 8.995C4.80898 8.995 0 13.807 0 19.662V58.422C0 64.279 4.80898 69.089 10.668 69.089H49.424C55.283 69.089 60.088 64.279 60.088 58.422V29.429C58.438 30.028 56.635 30.328 54.983 30.328C45.969 30.328 38.608 22.97 38.608 13.957C38.608 12.304 38.911 10.65 39.36 8.995H10.668Z" fill="#1C1C1B"/>
<path d="M55.5678 0C48.0578 0 42.0479 6.006 42.0479 13.37C42.0479 20.881 48.0578 26.892 55.5678 26.892C62.9288 26.892 68.9369 20.88 68.9369 13.37C68.9369 6.006 62.9288 0 55.5678 0ZM54.6789 4.793H57.6259V23.272H54.3839V7.04599V7.896L51.2919 9.381L50.6279 6.896L54.6789 4.793Z" fill="#1C1C1B"/>
</svg>
