<svg width="66" height="66" viewBox="0 0 66 66" fill="none" xmlns="http://www.w3.org/2000/svg">
<path d="M32.676 5.00699C47.935 5.00699 60.346 17.423 60.346 32.677C60.346 47.935 47.935 60.346 32.676 60.346C17.421 60.346 5.008 47.935 5.008 32.677C5.008 17.423 17.422 5.00699 32.676 5.00699ZM32.676 0C14.631 0 0 14.629 0 32.677C0 50.726 14.631 65.353 32.676 65.353C50.725 65.353 65.352 50.726 65.352 32.677C65.352 14.629 50.725 0 32.676 0Z" fill="#1C1C1B"/>
<path d="M51.8909 35.183H30.1909V9.84094H35.197V30.177H51.8909V35.183Z" fill="#1C1C1B"/>
</svg>
