<?xml version="1.0" encoding="utf-8"?>
<!-- Generator: Adobe Illustrator 21.0.0, SVG Export Plug-In . SVG Version: 6.00 Build 0)  -->
<svg version="1.1" id="_x31_" xmlns="http://www.w3.org/2000/svg" xmlns:xlink="http://www.w3.org/1999/xlink" x="0px" y="0px"
	 viewBox="0 0 24 24" enable-background="new 0 0 24 24" xml:space="preserve">
<path d="M4,24c-2.206,0-4-1.794-4-4s1.794-4,4-4c0.19,0,0.367,0.011,0.534,0.034L16.092,4.835C16.03,4.563,16,4.283,16,4
	c0-2.206,1.794-4,4-4s4,1.794,4,4s-1.794,4-4,4c-0.187,0-0.359-0.011-0.524-0.033L7.932,19.279C7.978,19.513,8,19.754,8,20
	C8,22.206,6.206,24,4,24z M4,17c-1.654,0-3,1.346-3,3s1.346,3,3,3s3-1.346,3-3c0-0.255-0.035-0.512-0.101-0.742
	c-0.051-0.176-0.001-0.366,0.131-0.495l11.93-11.69c0.12-0.12,0.293-0.168,0.46-0.131C19.591,6.981,19.781,7,20,7
	c1.654,0,3-1.346,3-3s-1.346-3-3-3s-3,1.346-3,3c0,0.289,0.043,0.571,0.127,0.84c0.057,0.181,0.007,0.377-0.129,0.509l-11.95,11.58
	c-0.057,0.055-0.125,0.096-0.199,0.119c-0.046,0.014-0.095,0.022-0.146,0.022l0,0c-0.001,0-0.001,0-0.001,0
	c-0.001,0-0.001,0-0.002,0H4.69c-0.001,0-0.001,0-0.002,0l0,0c0,0-0.001,0-0.002,0l0,0c-0.039,0-0.078-0.005-0.115-0.014
	C4.402,17.018,4.215,17,4,17z"/>
<path d="M20,5.5c-0.827,0-1.5-0.673-1.5-1.5s0.673-1.5,1.5-1.5s1.5,0.673,1.5,1.5S20.827,5.5,20,5.5z M20,3.5
	c-0.275,0-0.5,0.224-0.5,0.5s0.225,0.5,0.5,0.5s0.5-0.224,0.5-0.5S20.275,3.5,20,3.5z"/>
<path d="M4,21.5c-0.827,0-1.5-0.673-1.5-1.5s0.673-1.5,1.5-1.5s1.5,0.673,1.5,1.5S4.827,21.5,4,21.5z M4,19.5
	c-0.275,0-0.5,0.224-0.5,0.5s0.225,0.5,0.5,0.5s0.5-0.224,0.5-0.5S4.275,19.5,4,19.5z"/>
<path d="M20.912,23.999c-0.791,0-1.581-0.301-2.184-0.903l-7.23-7.23c-0.038-0.038-0.069-0.082-0.094-0.13l-0.21-0.42
	c-0.123-0.247-0.023-0.547,0.224-0.671c0.249-0.123,0.547-0.023,0.671,0.224l0.174,0.348l7.173,7.172
	c0.814,0.813,2.139,0.813,2.953,0c0.814-0.814,0.814-2.139,0-2.953l-7.173-7.172l-0.308-0.154c-0.247-0.124-0.347-0.424-0.224-0.671
	c0.124-0.247,0.425-0.344,0.671-0.224l0.38,0.19c0.048,0.024,0.092,0.056,0.13,0.094l7.23,7.23c1.204,1.204,1.204,3.163,0,4.367
	C22.494,23.697,21.703,23.999,20.912,23.999z"/>
<path d="M10.73,11.23c-0.128,0-0.256-0.049-0.354-0.146l-8.351-8.35c-0.195-0.195-0.195-0.512,0-0.707s0.512-0.195,0.707,0
	l8.351,8.35c0.195,0.195,0.195,0.512,0,0.707C10.986,11.181,10.858,11.23,10.73,11.23z"/>
<path d="M1.177,3.875c-0.032,0-0.065-0.003-0.098-0.01C0.915,3.833,0.778,3.721,0.715,3.566L0.088,2.052
	C0.083,2.041,0.079,2.03,0.075,2.019C-0.109,1.463,0.033,0.86,0.447,0.446c0.414-0.414,1.017-0.556,1.571-0.371l1.548,0.639
	c0.154,0.064,0.267,0.201,0.299,0.364C3.898,1.243,3.847,1.412,3.729,1.53L1.53,3.729C1.436,3.823,1.308,3.875,1.177,3.875z
	 M1.02,1.688l0.333,0.804l1.14-1.14L1.669,1.012C1.506,0.959,1.301,1.006,1.154,1.153C1.011,1.297,0.961,1.496,1.02,1.688z"/>
</svg>
