<?xml version="1.0" encoding="utf-8"?>
<!-- Generator: Adobe Illustrator 21.0.0, SVG Export Plug-In . SVG Version: 6.00 Build 0)  -->
<svg version="1.1" id="_x31_px" xmlns="http://www.w3.org/2000/svg" xmlns:xlink="http://www.w3.org/1999/xlink" x="0px" y="0px"
	 viewBox="0 0 24 24" enable-background="new 0 0 24 24" xml:space="preserve">
<path d="M11.5,18h-9C1.122,18,0,16.879,0,15.5v-12C0,2.121,1.122,1,2.5,1h19C22.878,1,24,2.121,24,3.5v12c0,0.276-0.224,0.5-0.5,0.5
	S23,15.776,23,15.5v-12C23,2.673,22.327,2,21.5,2h-19C1.673,2,1,2.673,1,3.5v12C1,16.327,1.673,17,2.5,17h9
	c0.276,0,0.5,0.224,0.5,0.5S11.776,18,11.5,18z"/>
<path d="M16.5,6h-13C3.224,6,3,5.776,3,5.5S3.224,5,3.5,5h13C16.776,5,17,5.224,17,5.5S16.776,6,16.5,6z"/>
<path d="M20.5,10h-17C3.224,10,3,9.776,3,9.5S3.224,9,3.5,9h17C20.776,9,21,9.224,21,9.5S20.776,10,20.5,10z"/>
<path d="M11.5,14h-8C3.224,14,3,13.776,3,13.5S3.224,13,3.5,13h8c0.276,0,0.5,0.224,0.5,0.5S11.776,14,11.5,14z"/>
<path d="M17.5,19c-1.93,0-3.5-1.57-3.5-3.5s1.57-3.5,3.5-3.5s3.5,1.57,3.5,3.5S19.43,19,17.5,19z M17.5,13
	c-1.378,0-2.5,1.121-2.5,2.5s1.122,2.5,2.5,2.5s2.5-1.121,2.5-2.5S18.878,13,17.5,13z"/>
<path d="M19.5,23c-0.13,0-0.258-0.051-0.354-0.146L17.5,21.207l-1.646,1.646c-0.137,0.138-0.34,0.183-0.523,0.117
	c-0.182-0.065-0.31-0.23-0.328-0.423l-0.5-5.25c-0.026-0.275,0.175-0.52,0.45-0.546c0.276-0.015,0.519,0.176,0.545,0.45l0.399,4.193
	l1.25-1.249c0.195-0.195,0.512-0.195,0.707,0l1.25,1.249l0.399-4.193c0.026-0.274,0.268-0.463,0.545-0.45
	c0.275,0.026,0.477,0.271,0.45,0.546l-0.5,5.25c-0.018,0.192-0.146,0.357-0.328,0.423C19.614,22.99,19.557,23,19.5,23z"/>
</svg>
