<?xml version="1.0" encoding="utf-8"?>
<!-- Generator: Adobe Illustrator 21.1.0, SVG Export Plug-In . SVG Version: 6.00 Build 0)  -->
<svg version="1.1" id="Layer_2" xmlns="http://www.w3.org/2000/svg" xmlns:xlink="http://www.w3.org/1999/xlink" x="0px" y="0px"
	 viewBox="0 0 24 24" enable-background="new 0 0 24 24" xml:space="preserve">
<g>
	<path d="M21.5,24h-19C1.122,24,0,22.878,0,21.5v-17C0,3.122,1.122,2,2.5,2h19C22.878,2,24,3.122,24,4.5v17
		C24,22.878,22.878,24,21.5,24z M2.5,3C1.673,3,1,3.673,1,4.5v17C1,22.327,1.673,23,2.5,23h19c0.827,0,1.5-0.673,1.5-1.5v-17
		C23,3.673,22.327,3,21.5,3H2.5z"/>
</g>
<g>
	<path d="M23.5,9h-23C0.224,9,0,8.776,0,8.5S0.224,8,0.5,8h23C23.776,8,24,8.224,24,8.5S23.776,9,23.5,9z"/>
</g>
<g>
	<path d="M5.5,5C5.224,5,5,4.776,5,4.5v-4C5,0.224,5.224,0,5.5,0S6,0.224,6,0.5v4C6,4.776,5.776,5,5.5,5z"/>
</g>
<g>
	<path d="M18.5,5C18.224,5,18,4.776,18,4.5v-4C18,0.224,18.224,0,18.5,0S19,0.224,19,0.5v4C19,4.776,18.776,5,18.5,5z"/>
</g>
</svg>
